<mxfile host="app.diagrams.net" modified="2023-10-13T12:32:39.032Z" agent="Mozilla/5.0 (Macintosh; Intel Mac OS X 10_15_7) AppleWebKit/537.36 (KHTML, like Gecko) Chrome/118.0.0.0 Safari/537.36" etag="kSD-y-LArDvN0KXb8s1Z" version="21.5.0" type="device">
  <diagram name="Page-1" id="b5b7bab2-c9e2-2cf4-8b2a-24fd1a2a6d21">
    <mxGraphModel dx="1400" dy="764" grid="1" gridSize="10" guides="1" tooltips="1" connect="1" arrows="1" fold="1" page="1" pageScale="1" pageWidth="827" pageHeight="1169" background="none" math="0" shadow="0">
      <root>
        <mxCell id="0" />
        <mxCell id="1" parent="0" />
        <mxCell id="0wfUy-Yw_zYCB97_N-Ra-35" value="" style="group;fillColor=#eeeeee;strokeColor=#36393d;" vertex="1" connectable="0" parent="1">
          <mxGeometry x="240" y="390" width="810" height="570" as="geometry" />
        </mxCell>
        <mxCell id="0wfUy-Yw_zYCB97_N-Ra-31" value="" style="rounded=0;whiteSpace=wrap;html=1;dashed=1;fillColor=none;" vertex="1" parent="0wfUy-Yw_zYCB97_N-Ra-35">
          <mxGeometry width="810" height="570" as="geometry" />
        </mxCell>
        <mxCell id="6e0c8c40b5770093-47" value="&lt;font style=&quot;font-size: 17px;&quot;&gt;Kafka&lt;/font&gt;" style="shape=folder;fontStyle=1;spacingTop=10;tabWidth=123;tabHeight=24;tabPosition=left;html=1;rounded=0;shadow=0;comic=0;labelBackgroundColor=none;strokeWidth=1;fontFamily=Verdana;fontSize=10;align=center;fillColor=#fff2cc;strokeColor=#d6b656;" parent="0wfUy-Yw_zYCB97_N-Ra-35" vertex="1">
          <mxGeometry x="570" y="42.75" width="140" height="280" as="geometry" />
        </mxCell>
        <mxCell id="0wfUy-Yw_zYCB97_N-Ra-9" value="" style="group" vertex="1" connectable="0" parent="0wfUy-Yw_zYCB97_N-Ra-35">
          <mxGeometry x="100" y="70" width="349.5" height="225.5" as="geometry" />
        </mxCell>
        <mxCell id="6e0c8c40b5770093-33" value="" style="shape=folder;fontStyle=1;spacingTop=10;tabWidth=123;tabHeight=24;tabPosition=left;html=1;rounded=0;shadow=0;comic=0;labelBackgroundColor=none;strokeColor=#d6b656;strokeWidth=1;fillColor=#fff2cc;fontFamily=Verdana;fontSize=10;align=center;" parent="0wfUy-Yw_zYCB97_N-Ra-9" vertex="1">
          <mxGeometry width="349.5" height="225.5" as="geometry" />
        </mxCell>
        <mxCell id="0wfUy-Yw_zYCB97_N-Ra-2" value="&lt;font style=&quot;font-size: 14px;&quot;&gt;&lt;b&gt;Producers&lt;/b&gt;&lt;/font&gt;" style="text;html=1;strokeColor=none;fillColor=none;align=center;verticalAlign=middle;whiteSpace=wrap;rounded=0;" vertex="1" parent="0wfUy-Yw_zYCB97_N-Ra-9">
          <mxGeometry x="19.5" y="35.5" width="60" height="30" as="geometry" />
        </mxCell>
        <mxCell id="0wfUy-Yw_zYCB97_N-Ra-4" value="Java Producer" style="rounded=1;whiteSpace=wrap;html=1;fillColor=#dae8fc;strokeColor=#6c8ebf;" vertex="1" parent="0wfUy-Yw_zYCB97_N-Ra-9">
          <mxGeometry x="49.5" y="75.5" width="100" height="50" as="geometry" />
        </mxCell>
        <mxCell id="0wfUy-Yw_zYCB97_N-Ra-5" value="GO Producer" style="rounded=1;whiteSpace=wrap;html=1;fillColor=#dae8fc;strokeColor=#6c8ebf;" vertex="1" parent="0wfUy-Yw_zYCB97_N-Ra-9">
          <mxGeometry x="52.129999999999995" y="155.5" width="100" height="50" as="geometry" />
        </mxCell>
        <mxCell id="0wfUy-Yw_zYCB97_N-Ra-6" value="C++ Producer" style="rounded=1;whiteSpace=wrap;html=1;fillColor=#dae8fc;strokeColor=#6c8ebf;" vertex="1" parent="0wfUy-Yw_zYCB97_N-Ra-9">
          <mxGeometry x="224" y="155.5" width="100" height="50" as="geometry" />
        </mxCell>
        <mxCell id="0wfUy-Yw_zYCB97_N-Ra-7" value="Rust Producer" style="rounded=1;whiteSpace=wrap;html=1;fillColor=#dae8fc;strokeColor=#6c8ebf;" vertex="1" parent="0wfUy-Yw_zYCB97_N-Ra-9">
          <mxGeometry x="224" y="75.5" width="100" height="50" as="geometry" />
        </mxCell>
        <mxCell id="0wfUy-Yw_zYCB97_N-Ra-17" style="edgeStyle=orthogonalEdgeStyle;rounded=0;orthogonalLoop=1;jettySize=auto;html=1;exitX=0;exitY=0;exitDx=349.5;exitDy=124.75;exitPerimeter=0;entryX=0;entryY=0;entryDx=0;entryDy=152;entryPerimeter=0;" edge="1" parent="0wfUy-Yw_zYCB97_N-Ra-35" source="6e0c8c40b5770093-33" target="6e0c8c40b5770093-47">
          <mxGeometry relative="1" as="geometry" />
        </mxCell>
        <mxCell id="0wfUy-Yw_zYCB97_N-Ra-18" value="&lt;b&gt;Logs&lt;/b&gt;" style="text;html=1;align=center;verticalAlign=middle;resizable=0;points=[];autosize=1;strokeColor=none;fillColor=none;" vertex="1" parent="0wfUy-Yw_zYCB97_N-Ra-35">
          <mxGeometry x="480" y="167.75" width="50" height="30" as="geometry" />
        </mxCell>
        <mxCell id="0wfUy-Yw_zYCB97_N-Ra-19" value="&lt;font style=&quot;font-size: 15px;&quot;&gt;Consumer&lt;/font&gt;" style="shape=folder;fontStyle=1;spacingTop=10;tabWidth=123;tabHeight=24;tabPosition=left;html=1;rounded=0;shadow=0;comic=0;labelBackgroundColor=none;strokeWidth=1;fontFamily=Verdana;fontSize=10;align=center;fillColor=#fff2cc;strokeColor=#d6b656;" vertex="1" parent="0wfUy-Yw_zYCB97_N-Ra-35">
          <mxGeometry x="84" y="370" width="180" height="180" as="geometry" />
        </mxCell>
        <mxCell id="0wfUy-Yw_zYCB97_N-Ra-20" style="edgeStyle=orthogonalEdgeStyle;rounded=0;orthogonalLoop=1;jettySize=auto;html=1;exitX=0;exitY=0;exitDx=140;exitDy=152;exitPerimeter=0;entryX=0;entryY=0;entryDx=0;entryDy=102;entryPerimeter=0;" edge="1" parent="0wfUy-Yw_zYCB97_N-Ra-35" source="6e0c8c40b5770093-47" target="0wfUy-Yw_zYCB97_N-Ra-19">
          <mxGeometry relative="1" as="geometry" />
        </mxCell>
        <mxCell id="0wfUy-Yw_zYCB97_N-Ra-23" value="" style="group" vertex="1" connectable="0" parent="0wfUy-Yw_zYCB97_N-Ra-35">
          <mxGeometry x="340" y="390" width="150" height="150" as="geometry" />
        </mxCell>
        <mxCell id="0wfUy-Yw_zYCB97_N-Ra-21" value="" style="shape=datastore;whiteSpace=wrap;html=1;fillColor=#dae8fc;strokeColor=#6c8ebf;gradientColor=#7ea6e0;" vertex="1" parent="0wfUy-Yw_zYCB97_N-Ra-23">
          <mxGeometry width="150" height="150" as="geometry" />
        </mxCell>
        <mxCell id="0wfUy-Yw_zYCB97_N-Ra-22" value="" style="shape=image;verticalLabelPosition=bottom;labelBackgroundColor=default;verticalAlign=top;aspect=fixed;imageAspect=0;image=https://upload.wikimedia.org/wikipedia/commons/thumb/f/f4/Elasticsearch_logo.svg/1280px-Elasticsearch_logo.svg.png;" vertex="1" parent="0wfUy-Yw_zYCB97_N-Ra-23">
          <mxGeometry x="12.321428571428571" y="75" width="125.35714285714285" height="27.47142857142857" as="geometry" />
        </mxCell>
        <mxCell id="0wfUy-Yw_zYCB97_N-Ra-25" style="edgeStyle=orthogonalEdgeStyle;rounded=0;orthogonalLoop=1;jettySize=auto;html=1;exitX=0;exitY=0;exitDx=180;exitDy=102;exitPerimeter=0;entryX=0;entryY=0.5;entryDx=0;entryDy=0;" edge="1" parent="0wfUy-Yw_zYCB97_N-Ra-35" source="0wfUy-Yw_zYCB97_N-Ra-19" target="0wfUy-Yw_zYCB97_N-Ra-21">
          <mxGeometry relative="1" as="geometry">
            <mxPoint x="340" y="475" as="targetPoint" />
            <Array as="points">
              <mxPoint x="264" y="465" />
            </Array>
          </mxGeometry>
        </mxCell>
        <mxCell id="0wfUy-Yw_zYCB97_N-Ra-27" value="" style="shape=image;verticalLabelPosition=bottom;labelBackgroundColor=default;verticalAlign=top;aspect=fixed;imageAspect=0;image=https://upload.wikimedia.org/wikipedia/commons/thumb/a/a1/Grafana_logo.svg/1200px-Grafana_logo.svg.png;" vertex="1" parent="0wfUy-Yw_zYCB97_N-Ra-35">
          <mxGeometry x="570" y="385.51" width="155.8" height="158.98" as="geometry" />
        </mxCell>
        <mxCell id="0wfUy-Yw_zYCB97_N-Ra-30" style="edgeStyle=orthogonalEdgeStyle;rounded=0;orthogonalLoop=1;jettySize=auto;html=1;exitX=1;exitY=0.5;exitDx=0;exitDy=0;entryX=0;entryY=0.5;entryDx=0;entryDy=0;" edge="1" parent="0wfUy-Yw_zYCB97_N-Ra-35" source="0wfUy-Yw_zYCB97_N-Ra-21" target="0wfUy-Yw_zYCB97_N-Ra-27">
          <mxGeometry relative="1" as="geometry" />
        </mxCell>
        <mxCell id="0wfUy-Yw_zYCB97_N-Ra-34" value="&lt;font size=&quot;1&quot; style=&quot;&quot;&gt;&lt;b style=&quot;font-size: 20px;&quot;&gt;KafkaLog-Lense&lt;/b&gt;&lt;/font&gt;" style="text;html=1;strokeColor=none;fillColor=none;align=center;verticalAlign=middle;whiteSpace=wrap;rounded=0;" vertex="1" parent="0wfUy-Yw_zYCB97_N-Ra-35">
          <mxGeometry x="20" y="12.75" width="170" height="47.25" as="geometry" />
        </mxCell>
      </root>
    </mxGraphModel>
  </diagram>
</mxfile>
